{"title":"Star.Trek.Beyond.HDcam.h264.600mb","uid":15454279,"size":644295453,"categoryP":"video","categoryS":"movies","magnet":"?xt=urn:btih:3948b16e5d795887045821d37d0281f80f7d5112&amp;dn=Star.Trek.Beyond.HDcam.h264.600mb&amp;tr=udp%3A%2F%2Ftracker.leechers-paradise.org%3A6969&amp;tr=udp%3A%2F%2Fzer0day.ch%3A1337&amp;tr=udp%3A%2F%2Fopen.demonii.com%3A1337&amp;tr=udp%3A%2F%2Ftracker.coppersurfer.tk%3A6969&amp;tr=udp%3A%2F%2Fexodus.desync.com%3A6969","seeders":1,"leechers":2,"uploader":"xxTheOnexx","files":15,"time":1469969783,"description":"\n\r\nMy 1st go at fixing a cam movie up, props to everyone who puts hard work in, especially the extratorent staff. \r\n\r\nSo, I reduced the flicker, added some much needed color. Did my best, if it does well, then I will continue my work.  \r\n\r\n \nhttp://postimg.org/gallery/rgvheqf6/\r\n\r\n\r\n\r\n\r\nFormat                    : MPEG-4\r\nFormat profile            : Base Media / Version 2\r\nCodec ID                  : mp42\r\nFile size                 : 588 MiB\r\nDuration                  : 1h 52mn\r\nOverall bit rate mode     : Variable\r\nOverall bit rate          : 728 Kbps\r\n\r\n\r\nVideo\r\n-----\r\nID                        : 1\r\nFormat                    : AVC\r\nFormat/Info               : Advanced Video Codec\r\nFormat profile            :   \r\nFormat settings, CABAC    : Yes\r\nFormat settings, ReFrames : 3 frames\r\nFormat settings, GOP      : M=3, N=33\r\nCodec ID                  : avc1\r\nCodec ID/Info             : Advanced Video Coding\r\nDuration                  : 1h 52mn\r\nSource duration           : 1h 52mn\r\nBit rate                  : 594 Kbps\r\nWidth                     : 720 pixels\r\nHeight                    : 310 pixels\r\nDisplay aspect ratio      : 2.35:1\r\nFrame rate mode           : Variable\r\nFrame rate                : 29.970 fps\r\nMinimum frame rate        : 29.970 fps\r\nMaximum frame rate        : 30.000 fps\r\nStandard                  : NTSC\r\nColor space               : YUV\r\nChroma subsampling        : 4:2:0\r\nBit depth                 : 8 bits\r\nScan type                 : Progressive\r\nBits/(Pixel*Frame)        : 0.089\r\nStream size               : 480 MiB (82%)\r\nSource stream size        : 480 MiB (82%)\r\nLanguage                  : English\r\n-----\r\nID                        : 2\r\nFormat                    : AAC\r\nFormat/Info               : Advanced Audio Codec\r\nFormat profile            : LC\r\nCodec ID                  : 40\r\nDuration                  : 1h 52mn\r\nSource duration           : 1h 52mn\r\nBit rate mode             : Variable\r\nBit rate                  : 125 Kbps\r\nMaximum bit rate          : 209 Kbps\r\nChannel(s)                : 2 channels\r\nChannel positions         : Front: L R\r\nSampling rate             : 48.0 KHz\r\nCompression mode          : Lossy\r\nStream size               : 101 MiB (17%)\r\nSource stream size        : 101 MiB (17%","torrent":{"xt":"urn:btih:3948b16e5d795887045821d37d0281f80f7d5112","amp;dn":"Star.Trek.Beyond.HDcam.h264.600mb","amp;tr":["udp%3A%2F%2Ftracker.leechers-paradise.org%3A6969","udp%3A%2F%2Fzer0day.ch%3A1337","udp%3A%2F%2Fopen.demonii.com%3A1337","udp%3A%2F%2Ftracker.coppersurfer.tk%3A6969","udp%3A%2F%2Fexodus.desync.com%3A6969"],"infoHash":"3948b16e5d795887045821d37d0281f80f7d5112","infoHashBuffer":{"type":"Buffer","data":[57,72,177,110,93,121,88,135,4,88,33,211,125,2,129,248,15,125,81,18]},"announce":[],"urlList":[]}}